<svg width="180" height="180" viewBox="0 0 180 180" fill="none" xmlns="http://www.w3.org/2000/svg">
<circle cx="90" cy="90" r="85" stroke="#DDEEF5" stroke-opacity="0.44" stroke-width="10"/>
<mask id="mask0" mask-type="alpha" maskUnits="userSpaceOnUse" x="10" y="10" width="160" height="160">
<circle cx="90" cy="90" r="80" fill="#F6EBFE"/>
</mask>
<g mask="url(#mask0)">
<circle cx="90" cy="90" r="82.5" fill="#CEEBF4" stroke="black" stroke-width="5"/>
<g opacity="0.3" filter="url(#filter0_d)">
<rect x="28" width="123" height="55" rx="8" fill="white"/>
</g>
<g opacity="0.3" filter="url(#filter1_d)">
<rect x="28" y="126" width="123" height="55" rx="8" fill="white"/>
</g>
<g filter="url(#filter2_d)">
<rect x="28" y="63" width="123" height="55" rx="8" fill="white"/>
</g>
<path d="M109.76 110.69C109.558 110.69 109.365 110.77 109.223 110.913C109.08 111.055 109 111.248 109 111.45V122.9C109 123.32 109.34 123.66 109.76 123.66C109.95 123.66 110.11 123.6 110.24 123.5L112.15 121.95L113.81 125.57C113.94 125.84 114.21 126 114.5 126C114.61 126 114.72 126 114.83 125.92L117.59 124.64C117.97 124.46 118.15 124 117.95 123.63L116.28 120L118.69 119.55C118.856 119.507 119.005 119.417 119.12 119.29C119.39 118.97 119.35 118.5 119 118.21L110.26 110.86L110.25 110.87C110.113 110.754 109.94 110.69 109.76 110.69ZM114 112V110H119V112H114ZM112.83 106.76L115.66 103.93L117.07 105.34L114.24 108.17L112.83 106.76ZM109 102H111V107H109V102ZM102.93 116.66L105.76 113.83L107.17 115.24L104.34 118.07L102.93 116.66ZM102.93 105.34L104.34 103.93L107.17 106.76L105.76 108.17L102.93 105.34ZM106 112H101V110H106V112Z" fill="black"/>
<path d="M72.396 92.744C72.396 93.16 72.296 93.548 72.096 93.908C71.896 94.26 71.592 94.544 71.184 94.76C70.776 94.976 70.276 95.084 69.684 95.084C69.108 95.084 68.592 94.984 68.136 94.784C67.68 94.576 67.316 94.288 67.044 93.92C66.772 93.552 66.616 93.128 66.576 92.648H68.04C68.08 93.016 68.236 93.332 68.508 93.596C68.788 93.86 69.16 93.992 69.624 93.992C70.04 93.992 70.36 93.88 70.584 93.656C70.816 93.432 70.932 93.144 70.932 92.792C70.932 92.488 70.848 92.24 70.68 92.048C70.512 91.848 70.304 91.692 70.056 91.58C69.808 91.468 69.468 91.34 69.036 91.196C68.508 91.028 68.076 90.86 67.74 90.692C67.412 90.524 67.132 90.28 66.9 89.96C66.668 89.64 66.552 89.22 66.552 88.7C66.552 88.244 66.664 87.844 66.888 87.5C67.112 87.156 67.432 86.892 67.848 86.708C68.264 86.516 68.744 86.42 69.288 86.42C70.152 86.42 70.836 86.628 71.34 87.044C71.852 87.46 72.144 88.004 72.216 88.676H70.74C70.684 88.356 70.532 88.084 70.284 87.86C70.044 87.628 69.712 87.512 69.288 87.512C68.904 87.512 68.596 87.612 68.364 87.812C68.132 88.004 68.016 88.284 68.016 88.652C68.016 88.94 68.096 89.18 68.256 89.372C68.416 89.556 68.616 89.704 68.856 89.816C69.104 89.92 69.44 90.044 69.864 90.188C70.4 90.356 70.836 90.528 71.172 90.704C71.516 90.872 71.804 91.12 72.036 91.448C72.276 91.776 72.396 92.208 72.396 92.744ZM77.5575 88.304C78.1335 88.304 78.6455 88.44 79.0935 88.712C79.5495 88.984 79.9055 89.376 80.1615 89.888C80.4175 90.4 80.5455 91 80.5455 91.688C80.5455 92.384 80.4175 92.988 80.1615 93.5C79.9055 94.012 79.5495 94.404 79.0935 94.676C78.6455 94.948 78.1335 95.084 77.5575 95.084C76.9575 95.084 76.4455 94.936 76.0215 94.64C75.5975 94.344 75.3015 93.952 75.1335 93.464V98.144H73.7655V88.388H75.1335V89.924C75.3015 89.436 75.5975 89.044 76.0215 88.748C76.4455 88.452 76.9575 88.304 77.5575 88.304ZM77.1375 89.504C76.7535 89.504 76.4095 89.596 76.1055 89.78C75.8015 89.956 75.5615 90.212 75.3855 90.548C75.2095 90.876 75.1215 91.256 75.1215 91.688C75.1215 92.128 75.2095 92.512 75.3855 92.84C75.5615 93.168 75.8015 93.424 76.1055 93.608C76.4095 93.784 76.7535 93.872 77.1375 93.872C77.7455 93.872 78.2335 93.68 78.6015 93.296C78.9695 92.904 79.1535 92.368 79.1535 91.688C79.1535 91.016 78.9695 90.484 78.6015 90.092C78.2335 89.7 77.7455 89.504 77.1375 89.504ZM84.5152 88.304C85.1152 88.304 85.6272 88.452 86.0512 88.748C86.4752 89.044 86.7752 89.436 86.9512 89.924V88.388H88.3192V95H86.9512V93.464C86.7752 93.952 86.4752 94.344 86.0512 94.64C85.6272 94.936 85.1152 95.084 84.5152 95.084C83.9392 95.084 83.4232 94.948 82.9672 94.676C82.5192 94.404 82.1672 94.012 81.9112 93.5C81.6552 92.988 81.5272 92.384 81.5272 91.688C81.5272 91 81.6552 90.4 81.9112 89.888C82.1672 89.376 82.5192 88.984 82.9672 88.712C83.4232 88.44 83.9392 88.304 84.5152 88.304ZM84.9352 89.504C84.3272 89.504 83.8392 89.7 83.4712 90.092C83.1112 90.476 82.9312 91.008 82.9312 91.688C82.9312 92.368 83.1112 92.904 83.4712 93.296C83.8392 93.68 84.3272 93.872 84.9352 93.872C85.3192 93.872 85.6632 93.784 85.9672 93.608C86.2712 93.424 86.5112 93.168 86.6872 92.84C86.8632 92.512 86.9512 92.128 86.9512 91.688C86.9512 91.256 86.8632 90.876 86.6872 90.548C86.5112 90.212 86.2712 89.956 85.9672 89.78C85.6632 89.596 85.3192 89.504 84.9352 89.504ZM98.2288 88.28C99.0128 88.28 99.6368 88.528 100.101 89.024C100.573 89.52 100.809 90.228 100.809 91.148V95H99.4408V91.292C99.4408 90.716 99.2968 90.272 99.0088 89.96C98.7208 89.64 98.3248 89.48 97.8208 89.48C97.2848 89.48 96.8568 89.652 96.5368 89.996C96.2248 90.332 96.0688 90.828 96.0688 91.484V95H94.7008V91.292C94.7008 90.716 94.5568 90.272 94.2688 89.96C93.9808 89.64 93.5848 89.48 93.0808 89.48C92.5448 89.48 92.1168 89.652 91.7968 89.996C91.4848 90.332 91.3288 90.828 91.3288 91.484V95H89.9608V88.388H91.3288V89.768C91.4968 89.288 91.7768 88.92 92.1688 88.664C92.5608 88.408 93.0208 88.28 93.5488 88.28C94.1008 88.28 94.5768 88.416 94.9768 88.688C95.3848 88.96 95.6808 89.352 95.8648 89.864C96.0568 89.368 96.3648 88.98 96.7888 88.7C97.2128 88.42 97.6928 88.28 98.2288 88.28ZM110.223 86.528V87.632H106.587V90.26H109.587V91.316H106.587V95H105.219V86.528H110.223ZM114.465 88.304C115.105 88.304 115.681 88.44 116.193 88.712C116.705 88.984 117.105 89.376 117.393 89.888C117.681 90.4 117.825 91 117.825 91.688C117.825 92.384 117.681 92.988 117.393 93.5C117.105 94.012 116.705 94.404 116.193 94.676C115.681 94.948 115.105 95.084 114.465 95.084C113.825 95.084 113.249 94.948 112.737 94.676C112.233 94.404 111.833 94.012 111.537 93.5C111.249 92.98 111.105 92.376 111.105 91.688C111.105 91 111.249 90.4 111.537 89.888C111.833 89.376 112.233 88.984 112.737 88.712C113.249 88.44 113.825 88.304 114.465 88.304ZM114.465 89.492C114.113 89.492 113.789 89.572 113.493 89.732C113.197 89.892 112.957 90.14 112.773 90.476C112.597 90.804 112.509 91.208 112.509 91.688C112.509 92.176 112.597 92.584 112.773 92.912C112.957 93.24 113.197 93.484 113.493 93.644C113.789 93.804 114.113 93.884 114.465 93.884C114.817 93.884 115.141 93.804 115.437 93.644C115.733 93.484 115.969 93.24 116.145 92.912C116.329 92.584 116.421 92.176 116.421 91.688C116.421 91.208 116.329 90.804 116.145 90.476C115.969 90.14 115.733 89.892 115.437 89.732C115.141 89.572 114.817 89.492 114.465 89.492ZM120.509 86.12V95H119.141V86.12H120.509ZM124.816 88.304C125.416 88.304 125.928 88.452 126.352 88.748C126.776 89.044 127.072 89.436 127.24 89.924V86.12H128.62V95H127.24V93.464C127.072 93.952 126.776 94.344 126.352 94.64C125.928 94.936 125.416 95.084 124.816 95.084C124.24 95.084 123.724 94.948 123.268 94.676C122.82 94.404 122.468 94.012 122.212 93.5C121.956 92.988 121.828 92.384 121.828 91.688C121.828 91 121.956 90.4 122.212 89.888C122.468 89.376 122.82 88.984 123.268 88.712C123.724 88.44 124.24 88.304 124.816 88.304ZM125.236 89.504C124.628 89.504 124.14 89.7 123.772 90.092C123.412 90.476 123.232 91.008 123.232 91.688C123.232 92.368 123.412 92.904 123.772 93.296C124.14 93.68 124.628 93.872 125.236 93.872C125.62 93.872 125.964 93.784 126.268 93.608C126.572 93.424 126.812 93.168 126.988 92.84C127.164 92.512 127.252 92.128 127.252 91.688C127.252 91.256 127.164 90.876 126.988 90.548C126.812 90.212 126.572 89.956 126.268 89.78C125.964 89.596 125.62 89.504 125.236 89.504ZM136.406 91.376C136.406 91.6 136.39 91.796 136.358 91.964H131.27C131.294 92.644 131.482 93.148 131.834 93.476C132.186 93.804 132.622 93.968 133.142 93.968C133.598 93.968 133.982 93.852 134.294 93.62C134.614 93.388 134.81 93.08 134.882 92.696H136.346C136.258 93.16 136.074 93.572 135.794 93.932C135.514 94.292 135.15 94.576 134.702 94.784C134.254 94.984 133.754 95.084 133.202 95.084C132.562 95.084 131.994 94.948 131.498 94.676C131.01 94.404 130.626 94.012 130.346 93.5C130.066 92.988 129.926 92.384 129.926 91.688C129.926 91 130.066 90.4 130.346 89.888C130.626 89.376 131.01 88.984 131.498 88.712C131.994 88.44 132.562 88.304 133.202 88.304C133.85 88.304 134.414 88.44 134.894 88.712C135.382 88.976 135.754 89.344 136.01 89.816C136.274 90.28 136.406 90.8 136.406 91.376ZM135.026 91.34C135.042 90.908 134.966 90.548 134.798 90.26C134.638 89.964 134.414 89.748 134.126 89.612C133.846 89.468 133.538 89.396 133.202 89.396C132.666 89.396 132.218 89.56 131.858 89.888C131.498 90.216 131.302 90.7 131.27 91.34H135.026ZM139.094 89.684C139.318 89.252 139.638 88.912 140.054 88.664C140.47 88.408 140.95 88.28 141.494 88.28V89.768H141.086C140.486 89.768 140.002 89.916 139.634 90.212C139.274 90.5 139.094 90.98 139.094 91.652V95H137.726V88.388H139.094V89.684Z" fill="black"/>
<path d="M52.218 81.5L57.901 87.182V95.218L52.218 100.901H44.182L38.499 95.218V87.182L44.182 81.499H52.218V81.5ZM47 94V96H49V94H47ZM47 86V92H49V86H47Z" fill="#EB5757"/>
</g>
<defs>
<filter id="filter0_d" x="20" y="-8" width="143" height="75" filterUnits="userSpaceOnUse" color-interpolation-filters="sRGB">
<feFlood flood-opacity="0" result="BackgroundImageFix"/>
<feColorMatrix in="SourceAlpha" type="matrix" values="0 0 0 0 0 0 0 0 0 0 0 0 0 0 0 0 0 0 127 0"/>
<feOffset dx="2" dy="2"/>
<feGaussianBlur stdDeviation="5"/>
<feColorMatrix type="matrix" values="0 0 0 0 0.575007 0 0 0 0 0.139931 0 0 0 0 0.645833 0 0 0 0.12 0"/>
<feBlend mode="normal" in2="BackgroundImageFix" result="effect1_dropShadow"/>
<feBlend mode="normal" in="SourceGraphic" in2="effect1_dropShadow" result="shape"/>
</filter>
<filter id="filter1_d" x="20" y="118" width="143" height="75" filterUnits="userSpaceOnUse" color-interpolation-filters="sRGB">
<feFlood flood-opacity="0" result="BackgroundImageFix"/>
<feColorMatrix in="SourceAlpha" type="matrix" values="0 0 0 0 0 0 0 0 0 0 0 0 0 0 0 0 0 0 127 0"/>
<feOffset dx="2" dy="2"/>
<feGaussianBlur stdDeviation="5"/>
<feColorMatrix type="matrix" values="0 0 0 0 0.575007 0 0 0 0 0.139931 0 0 0 0 0.645833 0 0 0 0.12 0"/>
<feBlend mode="normal" in2="BackgroundImageFix" result="effect1_dropShadow"/>
<feBlend mode="normal" in="SourceGraphic" in2="effect1_dropShadow" result="shape"/>
</filter>
<filter id="filter2_d" x="20" y="55" width="143" height="75" filterUnits="userSpaceOnUse" color-interpolation-filters="sRGB">
<feFlood flood-opacity="0" result="BackgroundImageFix"/>
<feColorMatrix in="SourceAlpha" type="matrix" values="0 0 0 0 0 0 0 0 0 0 0 0 0 0 0 0 0 0 127 0"/>
<feOffset dx="2" dy="2"/>
<feGaussianBlur stdDeviation="5"/>
<feColorMatrix type="matrix" values="0 0 0 0 0.575007 0 0 0 0 0.139931 0 0 0 0 0.645833 0 0 0 0.12 0"/>
<feBlend mode="normal" in2="BackgroundImageFix" result="effect1_dropShadow"/>
<feBlend mode="normal" in="SourceGraphic" in2="effect1_dropShadow" result="shape"/>
</filter>
</defs>
</svg>
