<svg width="180" height="180" viewBox="0 0 180 180" fill="none" xmlns="http://www.w3.org/2000/svg">
<circle cx="90" cy="90" r="80" fill="#F6EBFE"/>
<circle cx="90" cy="90" r="85" stroke="#BFE0AB" stroke-opacity="0.26" stroke-width="10"/>
<mask id="mask0" mask-type="alpha" maskUnits="userSpaceOnUse" x="10" y="10" width="160" height="160">
<circle cx="90" cy="90" r="80" fill="#F6EBFE"/>
</mask>
<g mask="url(#mask0)">
<circle cx="90" cy="90" r="80" fill="#BFE0AB"/>
<rect x="26" y="58" width="236" height="219" rx="16" fill="white"/>
<path d="M50.95 85.82C51.6167 85.82 52.22 85.9767 52.76 86.29C53.3067 86.5967 53.7367 87.0267 54.05 87.58C54.3633 88.1267 54.52 88.7467 54.52 89.44C54.52 90.1333 54.36 90.7567 54.04 91.31C53.7267 91.8633 53.2967 92.2967 52.75 92.61C52.21 92.9167 51.61 93.07 50.95 93.07C50.29 93.07 49.6867 92.9167 49.14 92.61C48.6 92.2967 48.17 91.8633 47.85 91.31C47.5367 90.7567 47.38 90.1333 47.38 89.44C47.38 88.7467 47.5367 88.1267 47.85 87.58C48.17 87.0267 48.6 86.5967 49.14 86.29C49.6867 85.9767 50.29 85.82 50.95 85.82ZM50.95 87.41C50.39 87.41 49.9433 87.5933 49.61 87.96C49.2833 88.32 49.12 88.8133 49.12 89.44C49.12 90.06 49.2833 90.5533 49.61 90.92C49.9433 91.2867 50.39 91.47 50.95 91.47C51.5033 91.47 51.9467 91.2867 52.28 90.92C52.6133 90.5533 52.78 90.06 52.78 89.44C52.78 88.82 52.6133 88.3267 52.28 87.96C51.9533 87.5933 51.51 87.41 50.95 87.41ZM57.1906 88.47C57.404 88.13 57.6773 87.86 58.0106 87.66C58.3506 87.46 58.7173 87.36 59.1106 87.36V89.19H58.6206C58.1673 89.19 57.814 89.2867 57.5606 89.48C57.314 89.6733 57.1906 90 57.1906 90.46V93H55.4806V87.42H57.1906V88.47ZM61.9463 87.35C62.373 87.35 62.7397 87.4467 63.0463 87.64C63.353 87.8333 63.5763 88.0967 63.7163 88.43V85.6H65.4263V93H63.7163V91.99C63.5763 92.3233 63.353 92.5867 63.0463 92.78C62.7397 92.9733 62.373 93.07 61.9463 93.07C61.4863 93.07 61.073 92.9567 60.7063 92.73C60.3463 92.4967 60.0597 92.1633 59.8463 91.73C59.6397 91.2967 59.5363 90.79 59.5363 90.21C59.5363 89.6233 59.6397 89.1167 59.8463 88.69C60.0597 88.2567 60.3463 87.9267 60.7063 87.7C61.073 87.4667 61.4863 87.35 61.9463 87.35ZM62.4963 88.85C62.1297 88.85 61.833 88.97 61.6063 89.21C61.3863 89.45 61.2763 89.7833 61.2763 90.21C61.2763 90.6367 61.3863 90.97 61.6063 91.21C61.833 91.45 62.1297 91.57 62.4963 91.57C62.8563 91.57 63.1497 91.4467 63.3763 91.2C63.6097 90.9533 63.7263 90.6233 63.7263 90.21C63.7263 89.79 63.6097 89.46 63.3763 89.22C63.1497 88.9733 62.8563 88.85 62.4963 88.85ZM71.9037 90.06C71.9037 90.2 71.887 90.3533 71.8537 90.52H67.9837C68.0037 90.94 68.1103 91.2433 68.3037 91.43C68.497 91.61 68.7437 91.7 69.0437 91.7C69.297 91.7 69.507 91.6367 69.6737 91.51C69.8403 91.3833 69.9503 91.22 70.0037 91.02H71.8137C71.7403 91.4133 71.5803 91.7667 71.3337 92.08C71.087 92.3867 70.7737 92.63 70.3937 92.81C70.0137 92.9833 69.5903 93.07 69.1237 93.07C68.577 93.07 68.0903 92.9567 67.6637 92.73C67.2437 92.4967 66.9137 92.1633 66.6737 91.73C66.4337 91.2967 66.3137 90.79 66.3137 90.21C66.3137 89.6233 66.4303 89.1167 66.6637 88.69C66.9037 88.2567 67.237 87.9267 67.6637 87.7C68.0903 87.4667 68.577 87.35 69.1237 87.35C69.677 87.35 70.1637 87.4633 70.5837 87.69C71.0037 87.9167 71.327 88.2367 71.5537 88.65C71.787 89.0567 71.9037 89.5267 71.9037 90.06ZM70.1737 89.8C70.1803 89.4333 70.0803 89.16 69.8737 88.98C69.6737 88.7933 69.4237 88.7 69.1237 88.7C68.8103 88.7 68.5503 88.7933 68.3437 88.98C68.137 89.1667 68.0203 89.44 67.9937 89.8H70.1737ZM74.5051 88.47C74.7184 88.13 74.9917 87.86 75.3251 87.66C75.6651 87.46 76.0317 87.36 76.4251 87.36V89.19H75.9351C75.4817 89.19 75.1284 89.2867 74.8751 89.48C74.6284 89.6733 74.5051 90 74.5051 90.46V93H72.7951V87.42H74.5051V88.47ZM85.6427 88.68L85.3827 89.89H86.6027V91.45H85.0527L84.7227 93H83.1227L83.4527 91.45H81.7827L81.4527 93H79.8627L80.1927 91.45H78.7327V89.89H80.5227L80.7827 88.68H79.3627V87.12H81.1227L81.4427 85.6H83.0327L82.7127 87.12H84.3827L84.7027 85.6H86.3027L85.9827 87.12H87.2327V88.68H85.6427ZM84.0427 88.68H82.3727L82.1127 89.89H83.7827L84.0427 88.68ZM138.87 87.35C139.59 87.35 140.193 87.55 140.68 87.95C141.166 88.3433 141.473 88.8867 141.6 89.58H139.79C139.736 89.34 139.626 89.1533 139.46 89.02C139.293 88.8867 139.083 88.82 138.83 88.82C138.53 88.82 138.283 88.94 138.09 89.18C137.896 89.4133 137.8 89.7567 137.8 90.21C137.8 90.6633 137.896 91.01 138.09 91.25C138.283 91.4833 138.53 91.6 138.83 91.6C139.083 91.6 139.293 91.5333 139.46 91.4C139.626 91.2667 139.736 91.08 139.79 90.84H141.6C141.473 91.5333 141.166 92.08 140.68 92.48C140.193 92.8733 139.59 93.07 138.87 93.07C138.323 93.07 137.836 92.9567 137.41 92.73C136.99 92.4967 136.66 92.1633 136.42 91.73C136.18 91.2967 136.06 90.79 136.06 90.21C136.06 89.6233 136.176 89.1167 136.41 88.69C136.65 88.2567 136.983 87.9267 137.41 87.7C137.836 87.4667 138.323 87.35 138.87 87.35ZM145.102 87.35C145.656 87.35 146.149 87.4667 146.582 87.7C147.022 87.9267 147.366 88.2567 147.612 88.69C147.866 89.1233 147.992 89.63 147.992 90.21C147.992 90.79 147.866 91.2967 147.612 91.73C147.366 92.1633 147.022 92.4967 146.582 92.73C146.149 92.9567 145.656 93.07 145.102 93.07C144.549 93.07 144.052 92.9567 143.612 92.73C143.172 92.4967 142.826 92.1633 142.572 91.73C142.326 91.2967 142.202 90.79 142.202 90.21C142.202 89.63 142.326 89.1233 142.572 88.69C142.826 88.2567 143.172 87.9267 143.612 87.7C144.052 87.4667 144.549 87.35 145.102 87.35ZM145.102 88.83C144.776 88.83 144.499 88.95 144.272 89.19C144.052 89.4233 143.942 89.7633 143.942 90.21C143.942 90.6567 144.052 90.9967 144.272 91.23C144.499 91.4633 144.776 91.58 145.102 91.58C145.429 91.58 145.702 91.4633 145.922 91.23C146.142 90.9967 146.252 90.6567 146.252 90.21C146.252 89.7633 146.142 89.4233 145.922 89.19C145.702 88.95 145.429 88.83 145.102 88.83ZM152.419 87.36C153.059 87.36 153.566 87.5733 153.939 88C154.319 88.4267 154.509 89.0133 154.509 89.76V93H152.799V89.96C152.799 89.5867 152.699 89.2967 152.499 89.09C152.306 88.8767 152.046 88.77 151.719 88.77C151.372 88.77 151.096 88.88 150.889 89.1C150.689 89.32 150.589 89.6333 150.589 90.04V93H148.879V87.42H150.589V88.44C150.749 88.1067 150.986 87.8433 151.299 87.65C151.619 87.4567 151.992 87.36 152.419 87.36ZM158.377 86.66C158.097 86.66 157.894 86.72 157.767 86.84C157.64 86.96 157.57 87.1533 157.557 87.42H158.567V88.86H157.557V93H155.847V88.86H155.177V87.42H155.847V87.36C155.847 86.6667 156.047 86.1333 156.447 85.76C156.854 85.38 157.44 85.19 158.207 85.19C158.367 85.19 158.487 85.1933 158.567 85.2V86.67L158.377 86.66ZM159.159 85.85C159.159 85.59 159.252 85.3767 159.439 85.21C159.625 85.0367 159.872 84.95 160.179 84.95C160.485 84.95 160.732 85.0367 160.919 85.21C161.105 85.3767 161.199 85.59 161.199 85.85C161.199 86.1033 161.105 86.3167 160.919 86.49C160.732 86.6567 160.485 86.74 160.179 86.74C159.872 86.74 159.625 86.6567 159.439 86.49C159.252 86.3167 159.159 86.1033 159.159 85.85ZM161.029 87.42V93H159.319V87.42H161.029ZM163.919 88.47C164.132 88.13 164.406 87.86 164.739 87.66C165.079 87.46 165.446 87.36 165.839 87.36V89.19H165.349C164.896 89.19 164.542 89.2867 164.289 89.48C164.042 89.6733 163.919 90 163.919 90.46V93H162.209V87.42H163.919V88.47ZM173.785 87.36C174.472 87.36 175.012 87.5733 175.405 88C175.798 88.42 175.995 89.0067 175.995 89.76V93H174.295V89.96C174.295 89.6067 174.198 89.3333 174.005 89.14C173.818 88.94 173.562 88.84 173.235 88.84C172.895 88.84 172.625 88.9467 172.425 89.16C172.232 89.3667 172.135 89.66 172.135 90.04V93H170.425V89.96C170.425 89.6067 170.332 89.3333 170.145 89.14C169.958 88.94 169.702 88.84 169.375 88.84C169.035 88.84 168.765 88.9433 168.565 89.15C168.365 89.3567 168.265 89.6533 168.265 90.04V93H166.555V87.42H168.265V88.37C168.412 88.0567 168.635 87.81 168.935 87.63C169.242 87.45 169.598 87.36 170.005 87.36C170.432 87.36 170.808 87.46 171.135 87.66C171.462 87.8533 171.708 88.1333 171.875 88.5C172.068 88.1533 172.332 87.8767 172.665 87.67C173.005 87.4633 173.378 87.36 173.785 87.36ZM182.431 90.06C182.431 90.2 182.414 90.3533 182.381 90.52H178.511C178.531 90.94 178.638 91.2433 178.831 91.43C179.024 91.61 179.271 91.7 179.571 91.7C179.824 91.7 180.034 91.6367 180.201 91.51C180.368 91.3833 180.478 91.22 180.531 91.02H182.341C182.268 91.4133 182.108 91.7667 181.861 92.08C181.614 92.3867 181.301 92.63 180.921 92.81C180.541 92.9833 180.118 93.07 179.651 93.07C179.104 93.07 178.618 92.9567 178.191 92.73C177.771 92.4967 177.441 92.1633 177.201 91.73C176.961 91.2967 176.841 90.79 176.841 90.21C176.841 89.6233 176.958 89.1167 177.191 88.69C177.431 88.2567 177.764 87.9267 178.191 87.7C178.618 87.4667 179.104 87.35 179.651 87.35C180.204 87.35 180.691 87.4633 181.111 87.69C181.531 87.9167 181.854 88.2367 182.081 88.65C182.314 89.0567 182.431 89.5267 182.431 90.06ZM180.701 89.8C180.708 89.4333 180.608 89.16 180.401 88.98C180.201 88.7933 179.951 88.7 179.651 88.7C179.338 88.7 179.078 88.7933 178.871 88.98C178.664 89.1667 178.548 89.44 178.521 89.8H180.701ZM185.442 87.35C185.869 87.35 186.236 87.4467 186.542 87.64C186.849 87.8333 187.072 88.0967 187.212 88.43V85.6H188.922V93H187.212V91.99C187.072 92.3233 186.849 92.5867 186.542 92.78C186.236 92.9733 185.869 93.07 185.442 93.07C184.982 93.07 184.569 92.9567 184.202 92.73C183.842 92.4967 183.556 92.1633 183.342 91.73C183.136 91.2967 183.032 90.79 183.032 90.21C183.032 89.6233 183.136 89.1167 183.342 88.69C183.556 88.2567 183.842 87.9267 184.202 87.7C184.569 87.4667 184.982 87.35 185.442 87.35ZM185.992 88.85C185.626 88.85 185.329 88.97 185.102 89.21C184.882 89.45 184.772 89.7833 184.772 90.21C184.772 90.6367 184.882 90.97 185.102 91.21C185.329 91.45 185.626 91.57 185.992 91.57C186.352 91.57 186.646 91.4467 186.872 91.2C187.106 90.9533 187.222 90.6233 187.222 90.21C187.222 89.79 187.106 89.46 186.872 89.22C186.646 88.9733 186.352 88.85 185.992 88.85Z" fill="#333333"/>
<path d="M92.2902 93L90.8002 90.8L89.5202 93H87.5602L89.8202 89.36L87.4902 85.93H89.5202L90.9702 88.06L92.2202 85.93H94.1702L91.9402 89.49L94.3202 93H92.2902ZM99.2726 93L97.7826 90.8L96.5026 93H94.5426L96.8026 89.36L94.4726 85.93H96.5026L97.9526 88.06L99.2026 85.93H101.153L98.9226 89.49L101.303 93H99.2726ZM106.255 93L104.765 90.8L103.485 93H101.525L103.785 89.36L101.455 85.93H103.485L104.935 88.06L106.185 85.93H108.135L105.905 89.49L108.285 93H106.255ZM114.829 88.78V90.2H110.419V88.78H114.829ZM122.671 93L121.181 90.8L119.901 93H117.941L120.201 89.36L117.871 85.93H119.901L121.351 88.06L122.601 85.93H124.551L122.321 89.49L124.701 93H122.671ZM129.653 93L128.163 90.8L126.883 93H124.923L127.183 89.36L124.853 85.93H126.883L128.333 88.06L129.583 85.93H131.533L129.303 89.49L131.683 93H129.653Z" fill="#2D9CDB"/>
<path d="M78.152 115.536C78.152 115.803 78.088 116.051 77.96 116.28C77.832 116.509 77.6373 116.696 77.376 116.84C77.1147 116.984 76.792 117.056 76.408 117.056C76.0347 117.056 75.7013 116.989 75.408 116.856C75.12 116.717 74.888 116.531 74.712 116.296C74.5413 116.056 74.4427 115.784 74.416 115.48H75.192C75.208 115.64 75.2613 115.797 75.352 115.952C75.448 116.101 75.5813 116.227 75.752 116.328C75.928 116.424 76.1387 116.472 76.384 116.472C76.704 116.472 76.9493 116.387 77.12 116.216C77.2907 116.045 77.376 115.827 77.376 115.56C77.376 115.331 77.3147 115.144 77.192 115C77.0747 114.856 76.928 114.744 76.752 114.664C76.576 114.579 76.336 114.488 76.032 114.392C75.6747 114.275 75.3867 114.165 75.168 114.064C74.9547 113.957 74.7707 113.8 74.616 113.592C74.4667 113.384 74.392 113.109 74.392 112.768C74.392 112.475 74.4613 112.216 74.6 111.992C74.744 111.768 74.9467 111.595 75.208 111.472C75.4747 111.349 75.7867 111.288 76.144 111.288C76.6987 111.288 77.1387 111.424 77.464 111.696C77.7893 111.963 77.9787 112.304 78.032 112.72H77.248C77.2053 112.496 77.0907 112.299 76.904 112.128C76.7173 111.957 76.464 111.872 76.144 111.872C75.8507 111.872 75.616 111.949 75.44 112.104C75.264 112.253 75.176 112.467 75.176 112.744C75.176 112.963 75.232 113.141 75.344 113.28C75.4613 113.413 75.6053 113.52 75.776 113.6C75.9467 113.675 76.1813 113.76 76.48 113.856C76.8427 113.973 77.1333 114.085 77.352 114.192C77.576 114.299 77.7653 114.461 77.92 114.68C78.0747 114.893 78.152 115.179 78.152 115.536ZM83.1709 114.56C83.1709 114.715 83.1602 114.848 83.1389 114.96H79.6269C79.6429 115.461 79.7842 115.837 80.0509 116.088C80.3229 116.339 80.6535 116.464 81.0429 116.464C81.3949 116.464 81.6882 116.376 81.9229 116.2C82.1629 116.019 82.3095 115.779 82.3629 115.48H83.1389C83.0855 115.784 82.9655 116.056 82.7789 116.296C82.5975 116.536 82.3602 116.723 82.0669 116.856C81.7735 116.989 81.4429 117.056 81.0749 117.056C80.6535 117.056 80.2802 116.965 79.9549 116.784C79.6295 116.603 79.3735 116.344 79.1869 116.008C79.0055 115.667 78.9149 115.267 78.9149 114.808C78.9149 114.349 79.0055 113.949 79.1869 113.608C79.3735 113.267 79.6295 113.005 79.9549 112.824C80.2802 112.643 80.6535 112.552 81.0749 112.552C81.5015 112.552 81.8722 112.643 82.1869 112.824C82.5069 113.005 82.7495 113.248 82.9149 113.552C83.0855 113.856 83.1709 114.192 83.1709 114.56ZM82.4349 114.608C82.4509 114.283 82.3975 114.011 82.2749 113.792C82.1522 113.573 81.9842 113.411 81.7709 113.304C81.5575 113.197 81.3255 113.144 81.0749 113.144C80.6749 113.144 80.3389 113.269 80.0669 113.52C79.7949 113.765 79.6482 114.128 79.6269 114.608H82.4349ZM84.8511 111.08V117H84.1231V111.08H84.8511ZM86.7495 111.08V117H86.0215V111.08H86.7495ZM91.9599 114.56C91.9599 114.715 91.9493 114.848 91.9279 114.96H88.4159C88.4319 115.461 88.5733 115.837 88.8399 116.088C89.1119 116.339 89.4426 116.464 89.8319 116.464C90.1839 116.464 90.4773 116.376 90.7119 116.2C90.9519 116.019 91.0986 115.779 91.1519 115.48H91.9279C91.8746 115.784 91.7546 116.056 91.5679 116.296C91.3866 116.536 91.1493 116.723 90.8559 116.856C90.5626 116.989 90.2319 117.056 89.8639 117.056C89.4426 117.056 89.0693 116.965 88.7439 116.784C88.4186 116.603 88.1626 116.344 87.9759 116.008C87.7946 115.667 87.7039 115.267 87.7039 114.808C87.7039 114.349 87.7946 113.949 87.9759 113.608C88.1626 113.267 88.4186 113.005 88.7439 112.824C89.0693 112.643 89.4426 112.552 89.8639 112.552C90.2906 112.552 90.6613 112.643 90.9759 112.824C91.2959 113.005 91.5386 113.248 91.7039 113.552C91.8746 113.856 91.9599 114.192 91.9599 114.56ZM91.2239 114.608C91.2399 114.283 91.1866 114.011 91.0639 113.792C90.9413 113.573 90.7733 113.411 90.5599 113.304C90.3466 113.197 90.1146 113.144 89.8639 113.144C89.4639 113.144 89.1279 113.269 88.8559 113.52C88.5839 113.765 88.4373 114.128 88.4159 114.608H91.2239ZM94.2881 112.552C94.7841 112.552 95.1815 112.683 95.4801 112.944C95.7841 113.2 95.9681 113.547 96.0321 113.984H95.3361C95.3041 113.723 95.1948 113.509 95.0081 113.344C94.8268 113.173 94.5815 113.088 94.2721 113.088C94.0108 113.088 93.8055 113.152 93.6561 113.28C93.5121 113.403 93.4401 113.571 93.4401 113.784C93.4401 113.944 93.4881 114.075 93.5841 114.176C93.6855 114.272 93.8081 114.347 93.9521 114.4C94.1015 114.448 94.3041 114.501 94.5601 114.56C94.8855 114.635 95.1468 114.712 95.3441 114.792C95.5468 114.867 95.7175 114.989 95.8561 115.16C96.0001 115.331 96.0721 115.56 96.0721 115.848C96.0721 116.205 95.9361 116.496 95.6641 116.72C95.3975 116.944 95.0401 117.056 94.5921 117.056C94.0695 117.056 93.6428 116.931 93.3121 116.68C92.9815 116.429 92.7868 116.08 92.7281 115.632H93.4321C93.4588 115.899 93.5735 116.115 93.7761 116.28C93.9841 116.445 94.2561 116.528 94.5921 116.528C94.8428 116.528 95.0375 116.464 95.1761 116.336C95.3201 116.208 95.3921 116.04 95.3921 115.832C95.3921 115.661 95.3415 115.525 95.2401 115.424C95.1388 115.323 95.0135 115.245 94.8641 115.192C94.7148 115.139 94.5095 115.083 94.2481 115.024C93.9228 114.949 93.6615 114.875 93.4641 114.8C93.2721 114.725 93.1068 114.608 92.9681 114.448C92.8348 114.283 92.7681 114.061 92.7681 113.784C92.7681 113.416 92.9041 113.12 93.1761 112.896C93.4481 112.667 93.8188 112.552 94.2881 112.552ZM98.4209 112.552C98.9169 112.552 99.3143 112.683 99.6129 112.944C99.9169 113.2 100.101 113.547 100.165 113.984H99.4689C99.4369 113.723 99.3276 113.509 99.1409 113.344C98.9596 113.173 98.7143 113.088 98.4049 113.088C98.1436 113.088 97.9383 113.152 97.7889 113.28C97.6449 113.403 97.5729 113.571 97.5729 113.784C97.5729 113.944 97.6209 114.075 97.7169 114.176C97.8183 114.272 97.9409 114.347 98.0849 114.4C98.2343 114.448 98.4369 114.501 98.6929 114.56C99.0183 114.635 99.2796 114.712 99.4769 114.792C99.6796 114.867 99.8503 114.989 99.9889 115.16C100.133 115.331 100.205 115.56 100.205 115.848C100.205 116.205 100.069 116.496 99.7969 116.72C99.5303 116.944 99.1729 117.056 98.7249 117.056C98.2023 117.056 97.7756 116.931 97.4449 116.68C97.1143 116.429 96.9196 116.08 96.8609 115.632H97.5649C97.5916 115.899 97.7063 116.115 97.9089 116.28C98.1169 116.445 98.3889 116.528 98.7249 116.528C98.9756 116.528 99.1703 116.464 99.3089 116.336C99.4529 116.208 99.5249 116.04 99.5249 115.832C99.5249 115.661 99.4743 115.525 99.3729 115.424C99.2716 115.323 99.1463 115.245 98.9969 115.192C98.8476 115.139 98.6423 115.083 98.3809 115.024C98.0556 114.949 97.7943 114.875 97.5969 114.8C97.4049 114.725 97.2396 114.608 97.1009 114.448C96.9676 114.283 96.9009 114.061 96.9009 113.784C96.9009 113.416 97.0369 113.12 97.3089 112.896C97.5809 112.667 97.9516 112.552 98.4209 112.552ZM105.779 117.856H105.043V110.632H105.779V117.856ZM113.555 111.36V115.552C113.555 116.016 113.421 116.384 113.155 116.656C112.893 116.923 112.525 117.056 112.051 117.056C111.539 117.056 111.136 116.907 110.843 116.608C110.555 116.304 110.411 115.88 110.411 115.336H111.139C111.139 115.661 111.211 115.92 111.355 116.112C111.499 116.299 111.72 116.392 112.019 116.392C112.301 116.392 112.507 116.312 112.635 116.152C112.763 115.992 112.827 115.792 112.827 115.552V111.36H113.555ZM116.486 112.552C116.912 112.552 117.272 112.659 117.566 112.872C117.864 113.085 118.072 113.371 118.19 113.728V112.608H118.918V117H118.19V115.88C118.072 116.237 117.864 116.523 117.566 116.736C117.272 116.949 116.912 117.056 116.486 117.056C116.096 117.056 115.75 116.965 115.446 116.784C115.142 116.603 114.902 116.344 114.726 116.008C114.555 115.667 114.47 115.267 114.47 114.808C114.47 114.349 114.555 113.949 114.726 113.608C114.902 113.267 115.142 113.005 115.446 112.824C115.75 112.643 116.096 112.552 116.486 112.552ZM116.694 113.2C116.246 113.2 115.886 113.344 115.614 113.632C115.347 113.915 115.214 114.307 115.214 114.808C115.214 115.309 115.347 115.704 115.614 115.992C115.886 116.275 116.246 116.416 116.694 116.416C116.982 116.416 117.238 116.349 117.462 116.216C117.691 116.083 117.87 115.896 117.998 115.656C118.126 115.411 118.19 115.128 118.19 114.808C118.19 114.488 118.126 114.205 117.998 113.96C117.87 113.715 117.691 113.528 117.462 113.4C117.238 113.267 116.982 113.2 116.694 113.2ZM122.388 112.536C122.9 112.536 123.314 112.701 123.628 113.032C123.943 113.357 124.1 113.829 124.1 114.448V117H123.372V114.512C123.372 114.075 123.26 113.739 123.036 113.504C122.812 113.269 122.508 113.152 122.124 113.152C121.724 113.152 121.404 113.283 121.164 113.544C120.924 113.8 120.804 114.176 120.804 114.672V117H120.076V112.608H120.804V113.648C120.916 113.291 121.114 113.016 121.396 112.824C121.684 112.632 122.015 112.536 122.388 112.536ZM126.945 116.44C127.852 115.832 128.577 115.229 129.121 114.632C129.665 114.029 129.937 113.469 129.937 112.952C129.937 112.632 129.855 112.376 129.689 112.184C129.529 111.987 129.268 111.888 128.905 111.888C128.532 111.888 128.249 112.008 128.057 112.248C127.865 112.483 127.759 112.808 127.737 113.224H127.017C127.055 112.595 127.249 112.112 127.601 111.776C127.953 111.435 128.407 111.264 128.961 111.264C129.489 111.264 129.908 111.405 130.217 111.688C130.527 111.971 130.681 112.371 130.681 112.888C130.681 113.315 130.543 113.749 130.265 114.192C129.993 114.629 129.649 115.037 129.233 115.416C128.823 115.789 128.399 116.107 127.961 116.368H130.825V116.968H126.945V116.44ZM134.788 112.864C134.746 112.528 134.631 112.269 134.444 112.088C134.263 111.901 134.01 111.808 133.684 111.808C133.231 111.808 132.887 111.984 132.652 112.336C132.423 112.688 132.308 113.245 132.308 114.008L132.316 114.304C132.396 113.984 132.58 113.731 132.868 113.544C133.156 113.352 133.495 113.256 133.884 113.256C134.444 113.256 134.882 113.424 135.196 113.76C135.516 114.096 135.676 114.565 135.676 115.168C135.676 115.52 135.607 115.84 135.468 116.128C135.33 116.411 135.116 116.637 134.828 116.808C134.546 116.973 134.194 117.056 133.772 117.056C132.967 117.056 132.412 116.803 132.108 116.296C131.81 115.789 131.66 115.101 131.66 114.232C131.66 113.229 131.82 112.477 132.14 111.976C132.466 111.469 132.994 111.216 133.724 111.216C134.263 111.216 134.676 111.368 134.964 111.672C135.258 111.976 135.431 112.373 135.484 112.864H134.788ZM132.396 115.048C132.396 115.437 132.508 115.765 132.732 116.032C132.962 116.293 133.303 116.424 133.756 116.424C134.13 116.424 134.428 116.315 134.652 116.096C134.876 115.872 134.988 115.56 134.988 115.16C134.988 114.728 134.876 114.4 134.652 114.176C134.428 113.947 134.119 113.832 133.724 113.832C133.5 113.832 133.287 113.877 133.084 113.968C132.882 114.059 132.716 114.197 132.588 114.384C132.46 114.565 132.396 114.787 132.396 115.048Z" fill="#BDBDBD"/>
<path d="M77.03 123.77V124.214H75.836V128H75.29V124.214H74.096V123.77H77.03ZM79.0668 124.664C79.3828 124.664 79.6648 124.732 79.9128 124.868C80.1648 125.004 80.3608 125.2 80.5008 125.456C80.6448 125.712 80.7168 126.012 80.7168 126.356C80.7168 126.7 80.6448 127 80.5008 127.256C80.3608 127.508 80.1648 127.702 79.9128 127.838C79.6648 127.974 79.3828 128.042 79.0668 128.042C78.7508 128.042 78.4668 127.974 78.2148 127.838C77.9668 127.702 77.7708 127.508 77.6268 127.256C77.4828 127 77.4108 126.7 77.4108 126.356C77.4108 126.012 77.4828 125.712 77.6268 125.456C77.7708 125.2 77.9668 125.004 78.2148 124.868C78.4668 124.732 78.7508 124.664 79.0668 124.664ZM79.0668 125.144C78.8708 125.144 78.6888 125.188 78.5208 125.276C78.3568 125.364 78.2228 125.5 78.1188 125.684C78.0188 125.864 77.9688 126.088 77.9688 126.356C77.9688 126.62 78.0188 126.844 78.1188 127.028C78.2228 127.208 78.3568 127.342 78.5208 127.43C78.6888 127.518 78.8708 127.562 79.0668 127.562C79.2628 127.562 79.4428 127.518 79.6068 127.43C79.7748 127.342 79.9088 127.208 80.0088 127.028C80.1128 126.844 80.1648 126.62 80.1648 126.356C80.1648 126.088 80.1128 125.864 80.0088 125.684C79.9088 125.5 79.7748 125.364 79.6068 125.276C79.4428 125.188 79.2628 125.144 79.0668 125.144ZM86.9607 124.652C87.3447 124.652 87.6527 124.776 87.8847 125.024C88.1207 125.268 88.2387 125.622 88.2387 126.086V128H87.6927V126.134C87.6927 125.81 87.6127 125.562 87.4527 125.39C87.2967 125.218 87.0807 125.132 86.8047 125.132C86.5167 125.132 86.2847 125.228 86.1087 125.42C85.9367 125.608 85.8507 125.886 85.8507 126.254V128H85.3047V126.134C85.3047 125.81 85.2247 125.562 85.0647 125.39C84.9047 125.218 84.6887 125.132 84.4167 125.132C84.1247 125.132 83.8907 125.228 83.7147 125.42C83.5427 125.608 83.4567 125.886 83.4567 126.254V128H82.9107V124.706H83.4567V125.456C83.5367 125.196 83.6787 124.998 83.8827 124.862C84.0907 124.722 84.3287 124.652 84.5967 124.652C84.8767 124.652 85.1187 124.724 85.3227 124.868C85.5307 125.008 85.6787 125.216 85.7667 125.492C85.8587 125.224 86.0127 125.018 86.2287 124.874C86.4447 124.726 86.6887 124.652 86.9607 124.652ZM92.1164 126.17C92.1164 126.286 92.1084 126.386 92.0924 126.47H89.4584C89.4704 126.846 89.5764 127.128 89.7764 127.316C89.9804 127.504 90.2284 127.598 90.5204 127.598C90.7844 127.598 91.0044 127.532 91.1804 127.4C91.3604 127.264 91.4704 127.084 91.5104 126.86H92.0924C92.0524 127.088 91.9624 127.292 91.8224 127.472C91.6864 127.652 91.5084 127.792 91.2884 127.892C91.0684 127.992 90.8204 128.042 90.5444 128.042C90.2284 128.042 89.9484 127.974 89.7044 127.838C89.4604 127.702 89.2684 127.508 89.1284 127.256C88.9924 127 88.9244 126.7 88.9244 126.356C88.9244 126.012 88.9924 125.712 89.1284 125.456C89.2684 125.2 89.4604 125.004 89.7044 124.868C89.9484 124.732 90.2284 124.664 90.5444 124.664C90.8644 124.664 91.1424 124.732 91.3784 124.868C91.6184 125.004 91.8004 125.186 91.9244 125.414C92.0524 125.642 92.1164 125.894 92.1164 126.17ZM91.5644 126.206C91.5764 125.962 91.5364 125.758 91.4444 125.594C91.3524 125.43 91.2264 125.308 91.0664 125.228C90.9064 125.148 90.7324 125.108 90.5444 125.108C90.2444 125.108 89.9924 125.202 89.7884 125.39C89.5844 125.574 89.4744 125.846 89.4584 126.206H91.5644Z" fill="#BDBDBD"/>
<path d="M57 109C51.48 109 47 113.48 47 119C47 124.52 51.48 129 57 129C62.52 129 67 124.52 67 119C67 113.48 62.52 109 57 109ZM57 112C58.66 112 60 113.34 60 115C60 116.66 58.66 118 57 118C55.34 118 54 116.66 54 115C54 113.34 55.34 112 57 112ZM57 126.2C55.8119 126.2 54.6422 125.906 53.5953 125.344C52.5484 124.782 51.6568 123.97 51 122.98C51.03 120.99 55 119.9 57 119.9C58.99 119.9 62.97 120.99 63 122.98C62.3432 123.97 61.4516 124.782 60.4047 125.344C59.3578 125.906 58.1881 126.2 57 126.2Z" fill="#F2F2F2"/>
<path d="M97.8065 125.019C97.9809 124.841 98.2237 124.827 98.4369 125.019L100 126.518L101.563 125.019C101.776 124.827 102.02 124.841 102.193 125.019C102.367 125.197 102.356 125.498 102.193 125.665C102.03 125.832 100.315 127.466 100.315 127.466C100.274 127.508 100.225 127.542 100.171 127.565C100.117 127.588 100.059 127.6 99.9997 127.6C99.9408 127.6 99.8826 127.588 99.8284 127.565C99.7743 127.542 99.7253 127.508 99.6845 127.466C99.6845 127.466 97.9697 125.832 97.8065 125.665C97.6429 125.498 97.6321 125.197 97.8065 125.019Z" fill="#BDBDBD"/>
</g>
</svg>
